# xmcd CD database file
#
# Track frame offsets:
#	150
#	17950
#	38962
#	62612
#	82430
#	114150
#	132810
#	151310
#	171017
#	190400
#	223072
#
# Disc length: 3119 seconds
#
# Revision: 0
# Processed by: cddbd v1.5.1PL0 Copyright (c) Steve Scherf et al.
# Submitted via: CDex 1.51
#
DISCID=980c2d0b
DTITLE=谷口崇 - BUSINESS
DYEAR=1900
DGENRE=JPop
TTITLE0=僕のGRACELAND
TTITLE1=ザ・ルネサンス・マン
TTITLE2=catch me now
TTITLE3=メルシィ
TTITLE4=指でさようなら
TTITLE5=泣き虫
TTITLE6=Sweegie
TTITLE7=45.5(よんじゅうごうてんご)
TTITLE8=エヴリ・every
TTITLE9=北半球だけでも
TTITLE10=カモフラージュ
EXTD=
EXTT0=
EXTT1=
EXTT2=
EXTT3=
EXTT4=
EXTT5=
EXTT6=
EXTT7=
EXTT8=
EXTT9=
EXTT10=
PLAYORDER=
